<?xml version="1.0" encoding="utf-8"?>
<!-- Generator: Adobe Illustrator 19.2.0, SVG Export Plug-In . SVG Version: 6.00 Build 0)  -->
<svg version="1.1" id="Layer_1" xmlns="http://www.w3.org/2000/svg" xmlns:xlink="http://www.w3.org/1999/xlink" x="0px" y="0px"
	 viewBox="0 0 150 110" style="enable-background:new 0 0 150 110;" xml:space="preserve">
<style type="text/css">
	.st0{opacity:0.7;fill:#0069B4;enable-background:new    ;}
	.st1{clip-path:url(#SVGID_2_);fill:#0069B4;}
	.st2{fill:#F7BB98;}
	.st3{opacity:0.41;fill:#D6A98C;enable-background:new    ;}
	.st4{fill:#F2AF90;}
	.st5{fill:#481C0F;}
	.st6{fill:#EB9696;}
	.st7{fill:#3A3E42;}
	.st8{fill:#0069B4;}
	.st9{opacity:0.5;fill:#283539;enable-background:new    ;}
	.st10{fill:#5E2311;}
	.st11{fill:#A51D1C;}
	.st12{fill:#0B77AD;}
	.st13{fill:#F6BA97;}
	.st14{fill:#009D96;}
	.st15{opacity:0.33;fill:#009D96;enable-background:new    ;}
	.st16{fill:#D5A88B;}
	.st17{fill:#F1AE8F;}
	.st18{fill:#0A6487;}
	.st19{fill:#363333;}
	.st20{fill:#D78C8D;}
</style>
<path class="st0" d="M87.3,93.2c-0.9-3.3-4.3-5.4-7.7-6.2l-32-8.1h-0.1l-32,8.1c-3.3,0.9-6.9,2.8-7.7,6.2C6.8,97.2,7,109.8,7,109.8
	h81C88,109.9,88.3,97.2,87.3,93.2z"/>
<g>
	<defs>
		<path id="SVGID_1_" d="M87.3,93.2c-0.9-3.3-4.3-5.4-7.7-6.2l-32-8.1h-0.1l-32,8.1c-3.3,0.9-6.9,2.8-7.7,6.2
			C6.8,97.2,7,109.8,7,109.8h81C88,109.9,88.3,97.2,87.3,93.2z"/>
	</defs>
	<clipPath id="SVGID_2_">
		<use xlink:href="#SVGID_1_"  style="overflow:visible;"/>
	</clipPath>
	<path class="st1" d="M4.7,86.1H89v4.8H4.7V86.1z M4.7,95.5H89v4.8H4.7V95.5z M4.7,105.1H89v4.8H4.7V105.1z"/>
</g>
<path class="st2" d="M31.6,82.9l15.9-4.7l15.8,4.7C63.2,82.8,49.5,96.3,31.6,82.9z"/>
<path class="st2" d="M51.4,88.9h-8.2c-2.9,0-5.3-2.4-5.3-5.3v-14c0-5,4.1-9.1,9.1-9.1h0.8c5,0,9.1,4.1,9.1,9.1v14.1
	C56.8,86.6,54.4,88.9,51.4,88.9z"/>
<path class="st3" d="M65.4,47.9c0,15.2-5.6,30.4-17.5,30.7c-12.5,0.3-18.6-15.5-18.6-30.7S30,20.8,47.4,21
	C65.7,21.2,65.4,32.8,65.4,47.9z"/>
<path class="st4" d="M28.5,59.1c0,0-4.4,0.2-6.3-6.6s1.9-6.7,4-4.9L28.5,59.1z M66.8,59.1c0,0,4.4,0.2,6.3-6.6s-1.9-6.7-4-4.9
	L66.8,59.1z"/>
<path class="st2" d="M69.4,46.4c0,15.2-6.7,30.4-20.9,30.7c-14.9,0.3-22.2-15.5-22.2-30.7s0.9-27.1,21.5-26.9
	C69.7,19.6,69.4,31.3,69.4,46.4z"/>
<path class="st5" d="M43.4,42.7c-0.1,0-0.2,0-0.3-0.1c-4.4-2.5-9.2,0-9.3,0c-0.3,0.1-0.6,0-0.8-0.2c-0.1-0.3,0-0.6,0.2-0.8
	c0.2-0.1,5.3-2.7,10.2,0c0.3,0.2,0.4,0.5,0.2,0.8C43.8,42.6,43.6,42.7,43.4,42.7z M61.6,42.7c-0.1,0-0.2,0-0.3-0.1
	c-4.4-2.5-9.2,0-9.3,0c-0.3,0.1-0.6,0-0.8-0.2c-0.2-0.2,0-0.6,0.2-0.8c0.2-0.1,5.3-2.7,10.2,0c0.3,0.2,0.4,0.5,0.2,0.8
	C62,42.6,61.8,42.7,61.6,42.7z"/>
<path class="st4" d="M47.2,59.9c-1.8,0-4.3-2-4.6-2.2c-0.3-0.2-0.3-0.6-0.1-0.9s0.6-0.3,0.9-0.1c0.7,0.6,2.7,2,4,2
	c1.2,0,3.2-1.4,4-2c0.3-0.2,0.6-0.2,0.9,0.1c0.2,0.3,0.2,0.6-0.1,0.9C51.5,57.9,49,59.9,47.2,59.9z"/>
<path class="st6" d="M54.7,65.6H40c2.1,0.9,4.6,2.5,7.4,2.5C50.1,68,52.7,66.5,54.7,65.6z"/>
<circle class="st7" cx="38.2" cy="47" r="1.5"/>
<circle class="st7" cx="56.8" cy="47" r="1.5"/>
<path class="st5" d="M47.7,12c-13.2,0-24,12.9-24,28.7c0,0.7,0,1.4,0.1,2.1c0.5,2.8,1,5.7,1.8,8.1c0.5,2.9,1.5,4.3,1.5,4.3
	s-1.3-5-0.5-16.6c6.5-22.1,12.2-7,21.2-6.9c8.7,0.1,12.5-15.5,21.1,7.2c0.9,8.2,0.1,14-0.2,15.8c0.1-0.1,0.1-0.3,0.2-0.4
	c0.7-2.2,2-7.6,2.8-14.3C71.4,24.6,60.8,12,47.7,12z"/>
<path class="st8" d="M66.9,83.7c0-0.1-16.3,16.7-38.8,0.1c-0.6-0.4,3.3-0.9,3.7-1c17.6,13.1,31,0.5,31.6-0.1
	C63.5,82.8,66.2,82.9,66.9,83.7z"/>
<path class="st9" d="M24.3,109.9l1.3-2.7v2.7H24.3z"/>
<ellipse class="st10" cx="109.1" cy="53.8" rx="28.1" ry="38.6"/>
<path class="st11" d="M89.5,54.8c-0.7,0.3-1.7-1.1-2.3-3c-0.6-2-0.4-3.7,0.3-3.8c0.7-0.2,1.5,1.3,2.1,3.1
	C90.1,52.9,90.1,54.5,89.5,54.8z"/>
<path class="st12" d="M144.5,93.6c-0.8-3.1-6.5-5-9.6-5.8l-26.2-6.8h-0.1l-26.8,6.8c-2.6,0.7-7.5,2.4-9,4.6c-0.4,0.7-0.9,1.2-1,2
	c-0.8,3.8-0.3,15.4-0.3,15.4h73.3C144.8,109.8,145.5,97.6,144.5,93.6z"/>
<path class="st13" d="M94,84.8l14.7-4.4l14.6,4.3c0,0-13.2,4.3-14.6,10.5C104.9,87.8,99.4,88.8,94,84.8z"/>
<path class="st14" d="M85.8,109.8l1.2-2.6v2.6H85.8z M132.5,109.8l-1.3-2.6v2.6H132.5z"/>
<path class="st15" d="M109.6,109.8l-1.2-2.6l-1.1,2.6H109.6z"/>
<path class="st13" d="M114.7,88.6h-12.2c-1.4,0-2.6-1.2-2.6-2.6V66.7c0-2.5,2-4.5,4.5-4.5h8.5c2.5,0,4.5,2,4.5,4.5v19.2
	C117.3,87.4,116.2,88.6,114.7,88.6z"/>
<path class="st16" d="M125.3,48.7c0,14.1-2.4,28.4-16.3,28.4c-12.9,0-17.3-14.4-17.3-28.4s0.7-28.8,16.8-28.6
	C125.6,20.3,125.3,34.6,125.3,48.7z"/>
<path class="st17" d="M91,59c0,0-4.2,0.2-5.9-6.1c-1.8-6.3,1.8-6.2,3.7-4.5L91,59z M126.7,59c0,0,4.2,0.2,5.9-6.1
	c1.8-6.3-1.8-6.2-3.7-4.5L126.7,59z"/>
<path class="st18" d="M104.8,91.8c-1.9,0.2-3.1,1.5-3.8,2.7l-10.9-8.4c2.1-1.7,5.7-1.6,5.7-1.6l10.4,6.7c0.9,0.8,1.8,2.3,1.8,3.7
	c0,0-0.2,0.4-0.4-0.4C107.5,93.6,106.8,91.6,104.8,91.8z"/>
<path class="st12" d="M104.8,91.3c-1.9,0.2-3.1,1.5-3.8,2.7l-10.9-8.4c2.1-1.7,5.7-1.6,5.7-1.6l10.4,6.7c0.9,0.8,1.8,2.3,1.8,3.7
	c0,0-0.2,0.4-0.4-0.4C107.5,93.2,106.8,91,104.8,91.3z"/>
<path class="st18" d="M109.2,94.8c0,0,0-2.2,1.7-3.8l10.3-6.9c0,0,3.6-0.1,5.8,1.5l-10.8,8.6c0,0-2.7-3.8-5.3-1.8
	c-0.3,0.3-0.8,0.6-1.4,2.1C109.4,95,109.2,94.8,109.2,94.8z"/>
<path class="st13" d="M129,47.2c0,14.1-2.4,28.4-19.4,28.4c-16.8,0-20.6-14.4-20.6-28.4s0.8-28.8,20-28.6
	C129.3,18.9,129,33.2,129,47.2z"/>
<path class="st10" d="M130.4,32.4c0,6.2-9.3,9.4-20.6,9.4s-22.2-3.1-22.2-9.4S98.7,17.9,110,17.9S130.4,26.2,130.4,32.4z"/>
<path class="st19" d="M100.1,50.1c-0.6,0-0.9-0.5-0.9-1v-0.4c0-0.6,0.5-1,0.9-1c0.6,0,0.9,0.5,0.9,1V49
	C101.1,49.6,100.7,50.1,100.1,50.1 M117.1,50.4c-0.6,0-0.9-0.5-0.9-1v-0.4c0-0.6,0.5-1,0.9-1s0.9,0.5,0.9,1v0.4
	C118.1,49.9,117.7,50.4,117.1,50.4"/>
<path class="st17" d="M108.4,61.3c-1.4,0-3.5-1.7-3.7-1.9c-0.2-0.2-0.3-0.6-0.1-0.9c0.2-0.3,0.5-0.3,0.8-0.1c0.6,0.5,2.2,1.6,3,1.6
	c0.9,0,2.6-1.2,3-1.6c0.2-0.2,0.6-0.2,0.8,0.1c0.2,0.3,0.1,0.6-0.1,0.9C111.9,59.6,109.8,61.3,108.4,61.3"/>
<path class="st20" d="M102,65.7h13.4c-1.9,1.9-4.2,2.5-6.7,2.5C106.3,68.1,103.9,67.6,102,65.7"/>
<path class="st10" d="M102,44.1c-0.8-0.6-3.1-0.6-5.2,0c-2.1,0.6-2.1,0.3,0-0.6c2.1-0.9,4.4-1.1,5.2-0.6c0.8,0.6,1.4,1.2,1.4,1.6
	C103.5,44.8,102.9,44.6,102,44.1 M114.4,44.1c0.8-0.6,3.1-0.6,5.2,0c2.1,0.6,2.1,0.3,0-0.6c-2.1-0.9-4.4-1.1-5.2-0.6
	c-0.8,0.6-1.4,1.2-1.4,1.6C113,44.8,113.6,44.6,114.4,44.1"/>
<path class="st12" d="M112.3,91.3c1.9,0.2,3.1,1.4,3.8,2.7l10.8-8.6c-2.1-1.6-5.8-1.5-5.8-1.5l-10.3,6.9c-0.9,0.8-1.8,2.3-1.7,3.8
	l0.2,0.1C109.3,93.8,110.3,91.1,112.3,91.3z"/>
</svg>
